#N canvas 470 227 440 205 10;
#X obj 25 79 catch~ LFU;
#X obj 25 130 outlet~ LFU;
#X obj 105 79 catch~ RFD;
#X obj 105 130 outlet~ RFD;
#X obj 185 79 catch~ RBU;
#X obj 185 130 outlet~ RBU;
#X obj 265 79 catch~ LBD;
#X obj 265 130 outlet~ LBD;
#X text 24 24 summing bus using catch~/throw~ mechanics for stone;
#X obj 351 79 inlet;
#X obj 351 99 pack \$0 20;
#X obj 351 119 line~;
#X obj 25 99 *~;
#X obj 105 99 *~;
#X obj 185 99 *~;
#X obj 265 99 *~;
#X connect 0 0 12 0;
#X connect 2 0 13 0;
#X connect 4 0 14 0;
#X connect 6 0 15 0;
#X connect 9 0 10 0;
#X connect 10 0 11 0;
#X connect 11 0 12 1;
#X connect 11 0 13 1;
#X connect 11 0 14 1;
#X connect 11 0 15 1;
#X connect 12 0 1 0;
#X connect 13 0 3 0;
#X connect 14 0 5 0;
#X connect 15 0 7 0;
