#N canvas 470 227 359 154 10;
#X obj 25 79 catch~ LFU;
#X obj 25 100 outlet~ LFU;
#X obj 105 79 catch~ RFD;
#X obj 105 100 outlet~ RFD;
#X obj 185 79 catch~ RBU;
#X obj 185 100 outlet~ RBU;
#X obj 265 79 catch~ LBD;
#X obj 265 100 outlet~ LBD;
#X text 24 24 summing bus using catch~/throw~ mechanics for stone;
#X connect 0 0 1 0;
#X connect 2 0 3 0;
#X connect 4 0 5 0;
#X connect 6 0 7 0;
