#N canvas 265 331 450 300 10;
#X obj 92 32 inlet~;
#X obj 92 189 outlet~ LFU;
#X obj 172 189 outlet~ RFD;
#X obj 254 189 outlet~ RBU;
#X obj 332 189 outlet~ LBD;
#X obj 269 92 *~ -1;
#X obj 254 145 +~;
#X obj 332 145 +~;
#X obj 172 145 +~;
#X obj 92 146 +~;
#X obj 92 166 *~ 0.5;
#X obj 172 165 *~ 0.5;
#X obj 254 165 *~ 0.5;
#X obj 332 165 *~ 0.5;
#X connect 0 0 5 0;
#X connect 0 0 6 0;
#X connect 0 0 7 0;
#X connect 0 0 8 1;
#X connect 0 0 8 0;
#X connect 0 0 9 1;
#X connect 0 0 9 0;
#X connect 5 0 6 1;
#X connect 5 0 7 1;
#X connect 6 0 12 0;
#X connect 7 0 13 0;
#X connect 8 0 11 0;
#X connect 9 0 10 0;
#X connect 10 0 1 0;
#X connect 11 0 2 0;
#X connect 12 0 3 0;
#X connect 13 0 4 0;
