#N canvas 0 170 1180 380 10;
#X obj 22 92 inlet~;
#X obj 815 321 outlet~ LFU;
#X obj 901 318 outlet~ RFD;
#X obj 989 317 outlet~ RBU;
#X obj 1076 318 outlet~ LBD;
#X obj 184 245 +~;
#X obj 262 245 +~;
#X obj 102 245 +~;
#X obj 22 245 +~;
#X obj 277 5 inlet;
#X msg 277 103 \$1 20;
#X obj 277 123 line~;
#X obj 37 224 *~;
#X obj 117 224 *~;
#X obj 199 224 *~;
#X obj 277 224 *~;
#X obj 277 40 wrap;
#X floatatom 277 24 5 0 0 0 - - -, f 5;
#X obj 277 59 expr if($f1<0.25 \, $f1*-8+1 \, if($f1<0.5 \, -1 \, if($f1<0.75
\, 8*($f1-0.75)+1 \, if($f1<1. \, 1 \, 1))));
#X msg 327 144 \$1 20;
#X obj 327 164 line~;
#X obj 327 97 expr if($f1<0.25 \, 1 \, if($f1<0.5 \, 8*(0.5-$f1)-1
\, if($f1<0.75 \, -1 \, if($f1<1. \, 8*($f1-1)+1 \, 1))));
#X floatatom 277 88 5 0 0 0 - - -, f 5;
#X floatatom 327 128 5 0 0 0 - - -, f 5;
#X msg 377 174 \$1 20;
#X obj 377 194 line~;
#X floatatom 377 158 5 0 0 0 - - -, f 5;
#X obj 377 127 expr if($f1<0.25 \, $f1*8-1 \, if($f1<0.5 \, 1 \, if($f1<0.75
\, 8*(-$f1+0.75)-1 \, if($f1<1. \, -1 \, -1))));
#X msg 427 214 \$1 20;
#X obj 427 234 line~;
#X floatatom 427 198 5 0 0 0 - - -, f 5;
#X obj 427 167 expr if($f1<0.25 \, -1 \, if($f1<0.5 \, 8*($f1-0.5)+1
\, if($f1<0.75 \, 1 \, if($f1<1. \, 8*(-$f1+1)-1 \, -1))));
#X msg 315 42 0;
#X obj 22 285 +~;
#X obj 37 264 *~;
#X obj 102 285 +~;
#X obj 117 264 *~;
#X obj 184 285 +~;
#X obj 199 264 *~;
#X obj 262 285 +~;
#X obj 277 264 *~;
#X obj 727 5 inlet;
#X msg 727 113 \$1 20;
#X obj 727 133 line~;
#X floatatom 727 24 5 0 0 0 - - -, f 5;
#X msg 777 134 \$1 20;
#X obj 777 154 line~;
#X floatatom 727 98 5 0 0 0 - - -, f 5;
#X floatatom 777 118 5 0 0 0 - - -, f 5;
#X msg 778 42 0;
#X obj 727 60 wrap;
#X obj 727 79 expr if($f1<0.5 \, $f1*-4+1 \, if($f1<1. \, 4*($f1-1)+1
\, 1));
#X obj 22 306 *~ 0.5;
#X obj 102 305 *~ 0.5;
#X obj 184 305 *~ 0.5;
#X obj 262 305 *~ 0.5;
#X obj 777 97 expr if($f1<0.5 \, $f1*4-1 \, if($f1<1. \, 4*(1-$f1)-1
\, 1));
#X obj 727 41 + 0.25;
#X obj 630 7 loadbang;
#X obj 630 27 f \$1;
#X floatatom 630 47 5 0 0 0 - - -, f 5;
#X obj 630 64 sel 0;
#X floatatom 670 47 5 0 0 0 - - -, f 5;
#X obj 670 64 sel 0;
#X obj 670 27 f \$2;
#X text 806 203 0.75 left;
#X text 806 217 0.25 right;
#X text 804 241 init values: xy \, z;
#N canvas 295 27 566 326 bus 1;
#X obj 39 44 inlet~ LFU;
#X obj 344 47 inlet;
#X obj 39 64 throw~ LFU;
#X obj 109 44 inlet~ RFD;
#X obj 109 64 throw~ RFD;
#X obj 179 44 inlet~ RBU;
#X obj 179 64 throw~ RBU;
#X obj 249 44 inlet~ LBD;
#X obj 249 64 throw~ LBD, f 11;
#X obj 344 67 sel 0 1;
#X msg 363 89 set LFU;
#X msg 362 112 set RFD;
#X msg 362 132 set RBU;
#X msg 362 151 set LBD;
#X obj 322 194 f \$0;
#X msg 322 234 set \$1;
#X msg 372 264 set \$1;
#X msg 142 234 set \$1;
#X msg 193 279 set \$1;
#X obj 142 214 makefilename %d-RBU;
#X obj 192 244 makefilename %d-LBD;
#X obj 322 214 makefilename %d-LFU;
#X obj 372 244 makefilename %d-RFD;
#X connect 0 0 2 0;
#X connect 1 0 9 0;
#X connect 3 0 4 0;
#X connect 5 0 6 0;
#X connect 7 0 8 0;
#X connect 9 0 14 0;
#X connect 9 1 10 0;
#X connect 9 1 11 0;
#X connect 9 1 12 0;
#X connect 9 1 13 0;
#X connect 10 0 2 0;
#X connect 11 0 4 0;
#X connect 12 0 6 0;
#X connect 13 0 8 0;
#X connect 14 0 19 0;
#X connect 14 0 20 0;
#X connect 14 0 21 0;
#X connect 14 0 22 0;
#X connect 15 0 2 0;
#X connect 16 0 4 0;
#X connect 17 0 6 0;
#X connect 18 0 8 0;
#X connect 19 0 17 0;
#X connect 20 0 18 0;
#X connect 21 0 15 0;
#X connect 22 0 16 0;
#X restore 140 353 pd bus, f 20;
#X obj 909 18 inlet;
#X obj 717 274 bng 15 250 50 0 empty empty empty 17 7 0 10 -262144
-1 -1;
#X obj 717 294 symbol \$3;
#X symbolatom 717 314 10 0 0 0 - - -, f 10;
#X obj 717 331 sel bus;
#X text 803 258 se metti bus puoi attivare la modalita' bus di default
che e' piu' sicuro di avere un tgl volante;
#X obj 815 300 catch~ \$0-LFU;
#X obj 901 299 catch~ \$0-RFD;
#X obj 989 299 catch~ \$0-RBU;
#X obj 1076 298 catch~ \$0-LBD;
#X obj 717 351 tgl 15 0 empty empty empty 17 7 0 10 -262144 -1 -1 0
1;
#X msg 737 360 0;
#X obj 769 350 bng 15 250 50 0 empty empty empty 17 7 0 10 -262144
-1 -1;
#X connect 0 0 5 0;
#X connect 0 0 6 0;
#X connect 0 0 7 0;
#X connect 0 0 8 0;
#X connect 0 0 12 0;
#X connect 0 0 13 0;
#X connect 0 0 14 0;
#X connect 0 0 15 0;
#X connect 0 0 34 0;
#X connect 0 0 36 0;
#X connect 0 0 38 0;
#X connect 0 0 40 0;
#X connect 5 0 37 0;
#X connect 6 0 39 0;
#X connect 7 0 35 0;
#X connect 8 0 33 0;
#X connect 9 0 17 0;
#X connect 10 0 11 0;
#X connect 11 0 12 1;
#X connect 12 0 8 1;
#X connect 13 0 7 1;
#X connect 14 0 5 1;
#X connect 15 0 6 1;
#X connect 16 0 18 0;
#X connect 16 0 21 0;
#X connect 16 0 27 0;
#X connect 16 0 31 0;
#X connect 17 0 16 0;
#X connect 18 0 22 0;
#X connect 19 0 20 0;
#X connect 20 0 13 1;
#X connect 21 0 23 0;
#X connect 22 0 10 0;
#X connect 23 0 19 0;
#X connect 24 0 25 0;
#X connect 25 0 14 1;
#X connect 26 0 24 0;
#X connect 27 0 26 0;
#X connect 28 0 29 0;
#X connect 29 0 15 1;
#X connect 30 0 28 0;
#X connect 31 0 30 0;
#X connect 32 0 17 0;
#X connect 33 0 52 0;
#X connect 34 0 33 1;
#X connect 35 0 53 0;
#X connect 36 0 35 1;
#X connect 37 0 54 0;
#X connect 38 0 37 1;
#X connect 39 0 55 0;
#X connect 40 0 39 1;
#X connect 41 0 44 0;
#X connect 42 0 43 0;
#X connect 43 0 34 1;
#X connect 43 0 38 1;
#X connect 44 0 57 0;
#X connect 45 0 46 0;
#X connect 46 0 36 1;
#X connect 46 0 40 1;
#X connect 47 0 42 0;
#X connect 48 0 45 0;
#X connect 49 0 44 0;
#X connect 50 0 51 0;
#X connect 50 0 56 0;
#X connect 51 0 47 0;
#X connect 52 0 68 0;
#X connect 53 0 68 1;
#X connect 54 0 68 2;
#X connect 55 0 68 3;
#X connect 56 0 48 0;
#X connect 57 0 50 0;
#X connect 58 0 59 0;
#X connect 58 0 64 0;
#X connect 58 0 70 0;
#X connect 59 0 60 0;
#X connect 60 0 61 0;
#X connect 61 0 32 0;
#X connect 61 1 17 0;
#X connect 62 0 63 0;
#X connect 63 0 49 0;
#X connect 63 1 44 0;
#X connect 64 0 62 0;
#X connect 69 0 68 4;
#X connect 70 0 71 0;
#X connect 71 0 72 0;
#X connect 72 0 73 0;
#X connect 73 0 79 0;
#X connect 73 1 81 0;
#X connect 75 0 1 0;
#X connect 76 0 2 0;
#X connect 77 0 3 0;
#X connect 78 0 4 0;
#X connect 79 0 68 4;
#X connect 80 0 79 0;
#X connect 81 0 80 0;
