#N canvas -5 170 1180 380 10;
#X obj 22 92 inlet~;
#X obj 22 329 outlet~ LFU;
#X obj 102 329 outlet~ RFD;
#X obj 184 329 outlet~ RBU;
#X obj 262 329 outlet~ LBD;
#X obj 184 245 +~;
#X obj 262 245 +~;
#X obj 102 245 +~;
#X obj 22 245 +~;
#X obj 277 5 inlet;
#X msg 277 103 \$1 20;
#X obj 277 123 line~;
#X obj 37 224 *~;
#X obj 117 224 *~;
#X obj 199 224 *~;
#X obj 277 224 *~;
#X obj 277 40 wrap;
#X floatatom 277 24 5 0 0 0 - - -, f 5;
#X obj 277 59 expr if($f1<0.25 \, $f1*-8+1 \, if($f1<0.5 \, -1 \, if($f1<0.75
\, 8*($f1-0.75)+1 \, if($f1<1. \, 1 \, 1))));
#X msg 327 144 \$1 20;
#X obj 327 164 line~;
#X obj 327 97 expr if($f1<0.25 \, 1 \, if($f1<0.5 \, 8*(0.5-$f1)-1
\, if($f1<0.75 \, -1 \, if($f1<1. \, 8*($f1-1)+1 \, 1))));
#X floatatom 277 88 5 0 0 0 - - -, f 5;
#X floatatom 327 128 5 0 0 0 - - -, f 5;
#X msg 377 174 \$1 20;
#X obj 377 194 line~;
#X floatatom 377 158 5 0 0 0 - - -, f 5;
#X obj 377 127 expr if($f1<0.25 \, $f1*8-1 \, if($f1<0.5 \, 1 \, if($f1<0.75
\, 8*(-$f1+0.75)-1 \, if($f1<1. \, -1 \, -1))));
#X msg 427 214 \$1 20;
#X obj 427 234 line~;
#X floatatom 427 198 5 0 0 0 - - -, f 5;
#X obj 427 167 expr if($f1<0.25 \, -1 \, if($f1<0.5 \, 8*($f1-0.5)+1
\, if($f1<0.75 \, 1 \, if($f1<1. \, 8*(-$f1+1)-1 \, -1))));
#X obj 315 5 loadbang;
#X obj 315 24 bng 15 250 50 0 empty empty empty 17 7 0 10 -262144 -1
-1;
#X msg 315 42 0;
#X obj 22 285 +~;
#X obj 37 264 *~;
#X obj 102 285 +~;
#X obj 117 264 *~;
#X obj 184 285 +~;
#X obj 199 264 *~;
#X obj 262 285 +~;
#X obj 277 264 *~;
#X obj 727 5 inlet;
#X msg 727 113 \$1 20;
#X obj 727 133 line~;
#X floatatom 727 24 5 0 0 0 - - -, f 5;
#X msg 777 134 \$1 20;
#X obj 777 154 line~;
#X floatatom 727 98 5 0 0 0 - - -, f 5;
#X floatatom 777 118 5 0 0 0 - - -, f 5;
#X obj 778 5 loadbang;
#X obj 778 24 bng 15 250 50 0 empty empty empty 17 7 0 10 -262144 -1
-1;
#X msg 778 42 0;
#X obj 727 60 wrap;
#X obj 727 79 expr if($f1<0.5 \, $f1*-4+1 \, if($f1<1. \, 4*($f1-1)+1
\, 1));
#X obj 22 306 *~ 0.5;
#X obj 102 305 *~ 0.5;
#X obj 184 305 *~ 0.5;
#X obj 262 305 *~ 0.5;
#X obj 777 97 expr if($f1<0.5 \, $f1*4-1 \, if($f1<1. \, 4*(1-$f1)-1
\, 1));
#X obj 727 41 + 0.25;
#X connect 0 0 5 0;
#X connect 0 0 6 0;
#X connect 0 0 7 0;
#X connect 0 0 8 0;
#X connect 0 0 12 0;
#X connect 0 0 13 0;
#X connect 0 0 14 0;
#X connect 0 0 15 0;
#X connect 0 0 36 0;
#X connect 0 0 38 0;
#X connect 0 0 40 0;
#X connect 0 0 42 0;
#X connect 5 0 39 0;
#X connect 6 0 41 0;
#X connect 7 0 37 0;
#X connect 8 0 35 0;
#X connect 9 0 17 0;
#X connect 10 0 11 0;
#X connect 11 0 12 1;
#X connect 12 0 8 1;
#X connect 13 0 7 1;
#X connect 14 0 5 1;
#X connect 15 0 6 1;
#X connect 16 0 18 0;
#X connect 16 0 21 0;
#X connect 16 0 27 0;
#X connect 16 0 31 0;
#X connect 17 0 16 0;
#X connect 18 0 22 0;
#X connect 19 0 20 0;
#X connect 20 0 13 1;
#X connect 21 0 23 0;
#X connect 22 0 10 0;
#X connect 23 0 19 0;
#X connect 24 0 25 0;
#X connect 25 0 14 1;
#X connect 26 0 24 0;
#X connect 27 0 26 0;
#X connect 28 0 29 0;
#X connect 29 0 15 1;
#X connect 30 0 28 0;
#X connect 31 0 30 0;
#X connect 32 0 33 0;
#X connect 33 0 34 0;
#X connect 34 0 17 0;
#X connect 35 0 56 0;
#X connect 36 0 35 1;
#X connect 37 0 57 0;
#X connect 38 0 37 1;
#X connect 39 0 58 0;
#X connect 40 0 39 1;
#X connect 41 0 59 0;
#X connect 42 0 41 1;
#X connect 43 0 46 0;
#X connect 44 0 45 0;
#X connect 45 0 36 1;
#X connect 45 0 40 1;
#X connect 46 0 61 0;
#X connect 47 0 48 0;
#X connect 48 0 38 1;
#X connect 48 0 42 1;
#X connect 49 0 44 0;
#X connect 50 0 47 0;
#X connect 51 0 52 0;
#X connect 52 0 53 0;
#X connect 53 0 46 0;
#X connect 54 0 55 0;
#X connect 54 0 60 0;
#X connect 55 0 49 0;
#X connect 56 0 1 0;
#X connect 57 0 2 0;
#X connect 58 0 3 0;
#X connect 59 0 4 0;
#X connect 60 0 50 0;
#X connect 61 0 54 0;
