#N canvas 40 402 541 219 10;
#X obj 25 60 sig2stone~;
#X obj 25 100 dac~ \$1 \$2 \$3 \$4;
#X obj 95 60 sig2stone~;
#X obj 165 60 sig2stone~;
#X obj 235 60 sig2stone~;
#X obj 25 40 inlet~ LFU;
#X obj 95 40 inlet~ RFD;
#X obj 165 40 inlet~ RBU;
#X obj 235 40 inlet~ LBD;
#X obj 371 60 tgl 15 0 empty empty empty 17 7 0 10 -262144 -1 -1 0
1;
#X obj 371 40 inlet pvu;
#X obj 394 60 s \$0-meters;
#X obj 30 125 send-vu \$0-LFU-vu \$0-meters;
#X obj 24 154 send-vu \$0-RFD-vu \$0-meters;
#X obj 200 125 send-vu \$0-RBU-vu \$0-meters;
#X obj 197 149 send-vu \$0-LBD-vu \$0-meters;
#N canvas 72 192 401 240 \$0-pvu 1;
#X obj 37 52 vu 15 120 empty empty -1 -8 0 10 -66577 -1 1 0;
#X obj 116 52 vu 15 120 empty empty -1 -8 0 10 -66577 -1 1 0;
#X obj 197 52 vu 15 120 empty empty -1 -8 0 10 -66577 -1 1 0;
#X obj 276 52 vu 15 120 empty empty -1 -8 0 10 -66577 -1 1 0;
#X obj 36 32 r \$0-LFU-vu;
#X obj 116 32 r \$0-RFD-vu;
#X obj 276 32 r \$0-LBD-vu;
#X obj 196 32 r \$0-RBU-vu;
#X connect 4 0 0 0;
#X connect 5 0 1 0;
#X connect 6 0 3 0;
#X connect 7 0 2 0;
#X restore 289 99 pd \$0-pvu;
#X obj 371 120 makefilename pd-%d-pvu;
#X obj 371 140 pack s f;
#X msg 371 160 \; \$1 vis \$2;
#X obj 371 100 f \$0;
#X obj 371 80 t b f;
#X connect 0 0 1 0;
#X connect 0 0 12 0;
#X connect 2 0 1 1;
#X connect 2 0 13 0;
#X connect 3 0 1 2;
#X connect 3 0 14 0;
#X connect 4 0 1 3;
#X connect 4 0 15 0;
#X connect 5 0 0 0;
#X connect 6 0 2 0;
#X connect 7 0 3 0;
#X connect 8 0 4 0;
#X connect 9 0 11 0;
#X connect 9 0 21 0;
#X connect 10 0 9 0;
#X connect 17 0 18 0;
#X connect 18 0 19 0;
#X connect 20 0 17 0;
#X connect 21 0 20 0;
#X connect 21 1 18 1;
