#N canvas 134 384 504 186 10;
#X obj 25 60 sig2stone~;
#X obj 25 100 dac~ \$1 \$2 \$3 \$4;
#X obj 95 60 sig2stone~;
#X obj 165 60 sig2stone~;
#X obj 235 60 sig2stone~;
#X obj 25 40 inlet~ LFU;
#X obj 95 40 inlet~ RFD;
#X obj 165 40 inlet~ RBU;
#X obj 235 40 inlet~ LBD;
#X obj 371 60 tgl 15 0 empty empty empty 17 7 0 10 -262144 -1 -1 0
1;
#X msg 371 80 \; pd-pvu vis \$1;
#X obj 371 40 inlet pvu;
#N canvas 0 23 401 240 pvu 0;
#X obj 56 32 r LFU-vu;
#X obj 57 52 vu 15 120 empty empty -1 -8 0 10 -66577 -1 1 0;
#X obj 116 32 r RFD-vu;
#X obj 116 52 vu 15 120 empty empty -1 -8 0 10 -66577 -1 1 0;
#X obj 177 52 vu 15 120 empty empty -1 -8 0 10 -66577 -1 1 0;
#X obj 236 52 vu 15 120 empty empty -1 -8 0 10 -66577 -1 1 0;
#X obj 176 32 r RBU-vu;
#X obj 236 32 r LBD-vu;
#X connect 0 0 1 0;
#X connect 2 0 3 0;
#X connect 6 0 4 0;
#X connect 7 0 5 0;
#X restore 371 120 pd pvu;
#X obj 394 60 s meters;
#X obj 51 125 send-vu LFU-vu meters;
#X obj 211 125 send-vu RBU-vu meters;
#X obj 224 150 send-vu LBD-vu meters;
#X obj 84 150 send-vu RFD-vu meters;
#X connect 0 0 1 0;
#X connect 0 0 14 0;
#X connect 2 0 1 1;
#X connect 2 0 17 0;
#X connect 3 0 1 2;
#X connect 3 0 15 0;
#X connect 4 0 1 3;
#X connect 4 0 16 0;
#X connect 5 0 0 0;
#X connect 6 0 2 0;
#X connect 7 0 3 0;
#X connect 8 0 4 0;
#X connect 9 0 10 0;
#X connect 9 0 13 0;
#X connect 11 0 9 0;
