#N canvas 516 199 760 363 10;
#X obj 25 58 noise~;
#X obj 25 81 *~ 0.01;
#X obj 25 101 *~;
#X floatatom 93 74 5 0 0 0 - - -, f 5;
#X obj 25 170 dac~ 1 2 3 4;
#X obj 145 58 noise~;
#X obj 145 81 *~ 0.01;
#X obj 145 101 *~;
#X floatatom 213 74 5 0 0 0 - - -, f 5;
#X obj 145 170 dac~ 1 2 3 4;
#X obj 265 58 noise~;
#X obj 265 81 *~ 0.01;
#X obj 265 101 *~;
#X floatatom 333 74 5 0 0 0 - - -, f 5;
#X obj 265 170 dac~ 1 2 3 4;
#X obj 265 121 side2stone~;
#X obj 375 58 noise~;
#X obj 375 81 *~ 0.01;
#X obj 375 101 *~;
#X floatatom 443 74 5 0 0 0 - - -, f 5;
#X obj 375 170 dac~ 1 2 3 4;
#X obj 375 121 mid2stone~;
#X obj 448 121 side2stone~;
#X obj 25 121 mid2stone~;
#X obj 525 58 noise~;
#X obj 525 81 *~ 0.01;
#X obj 525 101 *~;
#X floatatom 593 74 5 0 0 0 - - -, f 5;
#X obj 525 190 dac~ 1 2 3 4;
#X obj 525 121 mid2stone~;
#X obj 598 121 side2stone~;
#X obj 598 140 *~ -1;
#X obj 619 160 *~ -1;
#X obj 640 140 *~ -1;
#X obj 661 160 *~ -1;
#X obj 25 198 noise~;
#X obj 25 221 *~ 0.01;
#X obj 25 241 *~;
#X floatatom 93 214 5 0 0 0 - - -, f 5;
#X obj 25 281 lr2stone~;
#X obj 155 208 noise~;
#X obj 155 231 *~ 0.01;
#X obj 155 251 *~;
#X floatatom 223 224 5 0 0 0 - - -, f 5;
#X obj 155 320 dac~ 1 2 3 4;
#X obj 155 271 xy2stone~;
#X floatatom 223 251 5 0 0 0 - - -, f 5;
#X obj 275 208 noise~;
#X obj 275 231 *~ 0.01;
#X obj 275 251 *~;
#X floatatom 343 224 5 0 0 0 - - -, f 5;
#X obj 275 320 dac~ 1 2 3 4, f 13;
#X floatatom 312 251 5 0 0 0 - - -, f 5;
#X floatatom 357 250 5 0 0 0 - - -, f 5;
#X obj 405 208 noise~;
#X obj 405 231 *~ 0.01;
#X obj 405 251 *~;
#X floatatom 473 224 5 0 0 0 - - -, f 5;
#X floatatom 442 251 5 0 0 0 - - -, f 5;
#X floatatom 487 250 5 0 0 0 - - -, f 5;
#X obj 486 297 tgl 15 0 empty empty empty 17 7 0 10 -262144 -1 -1 0
1;
#X obj 106 287 tgl 15 0 empty empty empty 17 7 0 10 -262144 -1 -1 0
1;
#X obj 405 320 stone~ 1 2 3 4;
#X obj 25 310 stone~ 1 2 3 4;
#X obj 528 248 tgl 15 0 empty empty empty 17 7 0 10 -262144 -1 -1 0
1;
#X obj 275 271 sphere2stone~;
#X obj 405 271 sphere2stone~ 0.75 0 bus;
#X obj 405 300 bus2stone~;
#X connect 0 0 1 0;
#X connect 1 0 2 0;
#X connect 2 0 23 0;
#X connect 3 0 2 1;
#X connect 5 0 6 0;
#X connect 6 0 7 0;
#X connect 7 0 9 0;
#X connect 7 0 9 1;
#X connect 7 0 9 2;
#X connect 7 0 9 3;
#X connect 8 0 7 1;
#X connect 10 0 11 0;
#X connect 11 0 12 0;
#X connect 12 0 15 0;
#X connect 13 0 12 1;
#X connect 15 0 14 0;
#X connect 15 1 14 1;
#X connect 15 2 14 2;
#X connect 15 3 14 3;
#X connect 16 0 17 0;
#X connect 17 0 18 0;
#X connect 18 0 21 0;
#X connect 18 0 22 0;
#X connect 19 0 18 1;
#X connect 21 0 20 0;
#X connect 21 1 20 1;
#X connect 21 2 20 2;
#X connect 21 3 20 3;
#X connect 22 0 20 0;
#X connect 22 1 20 1;
#X connect 22 2 20 2;
#X connect 22 3 20 3;
#X connect 23 0 4 0;
#X connect 23 1 4 1;
#X connect 23 2 4 2;
#X connect 23 3 4 3;
#X connect 24 0 25 0;
#X connect 25 0 26 0;
#X connect 26 0 29 0;
#X connect 26 0 30 0;
#X connect 27 0 26 1;
#X connect 29 0 28 0;
#X connect 29 1 28 1;
#X connect 29 2 28 2;
#X connect 29 3 28 3;
#X connect 30 0 31 0;
#X connect 30 1 32 0;
#X connect 30 2 33 0;
#X connect 30 3 34 0;
#X connect 31 0 28 0;
#X connect 32 0 28 1;
#X connect 33 0 28 2;
#X connect 34 0 28 3;
#X connect 35 0 36 0;
#X connect 36 0 37 0;
#X connect 37 0 39 0;
#X connect 38 0 37 1;
#X connect 39 0 63 0;
#X connect 39 1 63 1;
#X connect 39 2 63 2;
#X connect 39 3 63 3;
#X connect 40 0 41 0;
#X connect 41 0 42 0;
#X connect 42 0 45 0;
#X connect 43 0 42 1;
#X connect 45 0 44 0;
#X connect 45 1 44 1;
#X connect 45 2 44 2;
#X connect 45 3 44 3;
#X connect 46 0 45 1;
#X connect 47 0 48 0;
#X connect 48 0 49 0;
#X connect 49 0 65 0;
#X connect 50 0 49 1;
#X connect 52 0 65 1;
#X connect 53 0 65 2;
#X connect 54 0 55 0;
#X connect 55 0 56 0;
#X connect 56 0 66 0;
#X connect 57 0 56 1;
#X connect 58 0 66 1;
#X connect 59 0 66 2;
#X connect 60 0 62 4;
#X connect 61 0 63 4;
#X connect 64 0 66 3;
#X connect 65 0 51 0;
#X connect 65 1 51 1;
#X connect 65 2 51 2;
#X connect 65 3 51 3;
#X connect 67 0 62 0;
#X connect 67 1 62 1;
#X connect 67 2 62 2;
#X connect 67 3 62 3;
