#N canvas 591 150 514 306 10;
#X obj 115 52 noise~;
#X obj 115 72 *~ 0.01;
#X obj 115 232 dac~ 1 2 3 4;
#X obj 115 142 *~;
#X floatatom 170 94 5 0 0 0 - - -, f 5;
#X obj 155 142 *~;
#X floatatom 210 94 5 0 0 0 - - -, f 5;
#X obj 185 142 *~;
#X floatatom 200 124 5 0 0 0 - - -, f 5;
#X obj 225 142 *~;
#X floatatom 240 124 5 0 0 0 - - -, f 5;
#X obj 337 36 tgl 15 0 empty empty empty 17 7 0 10 -262144 -1 -1 0
1;
#X obj 337 56 metro 1000;
#X obj 337 76 f;
#X obj 337 96 + 1;
#X obj 337 116 % 4;
#X obj 337 136 sel 0 1 2 3;
#X msg 317 163 1;
#X msg 329 184 0;
#X msg 343 208 0;
#X msg 352 227 0;
#X msg 357 163 1;
#X msg 369 184 0;
#X msg 397 163 1;
#X msg 409 184 0;
#X msg 437 163 1;
#X msg 449 184 0;
#X msg 397 105 0;
#X obj 397 85 sel 0;
#X connect 0 0 1 0;
#X connect 1 0 3 0;
#X connect 1 0 5 0;
#X connect 1 0 7 0;
#X connect 1 0 9 0;
#X connect 3 0 2 0;
#X connect 4 0 3 1;
#X connect 5 0 2 1;
#X connect 6 0 5 1;
#X connect 7 0 2 2;
#X connect 8 0 7 1;
#X connect 9 0 2 3;
#X connect 10 0 9 1;
#X connect 11 0 12 0;
#X connect 11 0 28 0;
#X connect 12 0 13 0;
#X connect 13 0 14 0;
#X connect 14 0 13 1;
#X connect 14 0 15 0;
#X connect 15 0 16 0;
#X connect 16 0 17 0;
#X connect 16 0 18 0;
#X connect 16 0 19 0;
#X connect 16 0 20 0;
#X connect 16 1 21 0;
#X connect 16 1 22 0;
#X connect 16 2 23 0;
#X connect 16 2 24 0;
#X connect 16 3 25 0;
#X connect 16 3 26 0;
#X connect 17 0 4 0;
#X connect 18 0 6 0;
#X connect 19 0 8 0;
#X connect 20 0 10 0;
#X connect 21 0 6 0;
#X connect 22 0 4 0;
#X connect 23 0 8 0;
#X connect 24 0 6 0;
#X connect 25 0 10 0;
#X connect 26 0 8 0;
#X connect 27 0 6 0;
#X connect 27 0 10 0;
#X connect 27 0 4 0;
#X connect 27 0 8 0;
#X connect 28 0 27 0;
