#N canvas 554 222 450 300 10;
#X obj 128 134 readsf~ 2;
#X msg 128 39 open 01_thema.wav;
#X msg 140 60 open 02_visage.wav;
#X obj 128 161 sphere2stone~ 0.75 0 bus;
#X obj 130 230 bus2stone~;
#X obj 130 250 stone~ 1 2 3 4;
#X obj 210 230 tgl 15 0 empty empty empty 17 7 0 10 -262144 -1 -1 0
1;
#X obj 148 181 sphere2stone~ 0.25 0 bus;
#X msg 151 79 start;
#X msg 162 103 stop;
#X floatatom 130 211 5 0 0 0 - - -, f 5;
#X connect 0 0 3 0;
#X connect 0 1 7 0;
#X connect 1 0 0 0;
#X connect 2 0 0 0;
#X connect 4 0 5 0;
#X connect 4 1 5 1;
#X connect 4 2 5 2;
#X connect 4 3 5 3;
#X connect 6 0 5 4;
#X connect 8 0 0 0;
#X connect 9 0 0 0;
#X connect 10 0 4 0;
