#N canvas 513 145 448 252 10;
#X obj 42 189 outlet~ LFU;
#X obj 122 189 outlet~ RFD;
#X obj 202 189 outlet~ RBU;
#X obj 282 189 outlet~ LBD;
#X obj 42 32 inlet~ left;
#X obj 241 34 inlet~ right;
#X obj 42 88 mid2stone~;
#X obj 119 88 side2stone~;
#X obj 212 88 mid2stone~;
#X obj 289 88 side2stone~;
#X obj 289 108 *~ -1;
#X obj 310 129 *~ -1;
#X obj 331 148 *~ -1;
#X obj 352 169 *~ -1;
#X connect 4 0 6 0;
#X connect 4 0 7 0;
#X connect 5 0 8 0;
#X connect 5 0 9 0;
#X connect 6 0 0 0;
#X connect 6 1 1 0;
#X connect 6 2 2 0;
#X connect 6 3 3 0;
#X connect 7 0 0 0;
#X connect 7 1 1 0;
#X connect 7 2 2 0;
#X connect 7 3 3 0;
#X connect 8 0 0 0;
#X connect 8 1 1 0;
#X connect 8 2 2 0;
#X connect 8 3 3 0;
#X connect 9 0 10 0;
#X connect 9 1 11 0;
#X connect 9 2 12 0;
#X connect 9 3 13 0;
#X connect 10 0 0 0;
#X connect 11 0 1 0;
#X connect 12 0 2 0;
#X connect 13 0 3 0;
